<svg version="1.2" xmlns="http://www.w3.org/2000/svg" width="46" height="42"><path fill-rule="evenodd" d="M44.1 16.8c0 3.2-2.3 5.8-5.2 6.2v7.1c0 .8-.4 1.5-1.1 1.9q-.5.3-1.1.3-.5 0-1-.3c-6-3.4-12.4-5.5-19.2-6.3l4.2 11.8c.2.7.1 1.4-.3 2-.4.6-1 .9-1.7.9h-4.9c-.9 0-1.7-.5-2-1.4L7 25.3c-1-.5-1.8-1.5-1.9-2.7H3.7c-1.5 0-2.7-1.2-2.7-2.8v-6C1 12.2 2.2 11 3.7 11h1.4c.2-1.7 1.5-3 3.2-3H15c7.3-.6 14.3-2.7 20.7-6.4.7-.4 1.5-.4 2.1 0 .7.4 1.1 1.1 1.1 1.9v7.1c2.9.4 5.2 3 5.2 6.2zm-39-3.7H3.7c-.3 0-.6.3-.6.7v6c0 .4.3.7.6.7h1.4zm3.1 10.3H14V10.1H8.3c-.6 0-1.2.6-1.2 1.2v10.9c0 .5.3.9.7 1.1.2.1.2.1.4.1zm6 2.1H9.3l4.5 12.7v.1h4.9v-.1zm22.6-22q0-.1-.1-.1C30.3 7.1 23.3 9.3 16 10v13.5c7.3.7 14.3 2.9 20.7 6.6q.1 0 .1-.1zM42 16.8c0-2-1.3-3.6-3.2-4v8c1.9-.4 3.2-2 3.2-4z" fill="#a3bbc8"/></svg>