<svg version="1.2" xmlns="http://www.w3.org/2000/svg" width="45" height="44"><path fill-rule="evenodd" d="M13.9 33.7c0-1.3.3-2.6.8-3.7L1.5 9.6c-.2-.4-.2-.9.1-1.2L7.9 2q.3-.2.7-.2h27.3q.4 0 .6.2l6.4 6.4c.3.3.3.8.1 1.2L29.8 30c.5 1.1.8 2.4.8 3.7 0 4.7-3.8 8.5-8.4 8.5-4.6 0-8.3-3.8-8.3-8.5zm1.8 0c0 3.7 2.9 6.7 6.5 6.7 3.7 0 6.6-3 6.6-6.7S25.9 27 22.2 27c-3.6 0-6.5 3-6.5 6.7zm8.5-8.2c1.8.4 3.4 1.4 4.5 2.8L40.6 10h-6.4zm-8.4 2.9c1.1-1.4 2.7-2.5 4.5-2.9L10.3 10H3.9zm6.5-3.1L32.1 10H12.4zM4.5 8.3h35.7l-4.6-4.6H9zm17.3 28.9v-4.9h-.5c-.5 0-.9-.4-.9-.9s.4-.9.9-.9h1.4c.5 0 .9.4.9.9v5.8c0 .5-.4.9-.9.9s-.9-.4-.9-.9z" fill="#a3bbc8"/></svg>