<svg version="1.2" xmlns="http://www.w3.org/2000/svg" width="82" height="67"><path d="M63.5 31.6c9.3 0 16.9 7.6 16.9 16.9 0 9.3-7.6 16.9-16.9 16.9-9.3 0-16.9-7.6-16.9-16.9 0-9.3 7.6-16.9 16.9-16.9z" fill="#a3bbc8"/><path fill-rule="evenodd" d="M57.7 59.4l-4.3 4.2c-1.6 1.6-3.8 2.4-6.6 2.4-2.5 0-5.4-.6-8.7-1.9-6.5-2.6-13.6-7.6-20.1-13.9-6.4-6.4-11.4-13.5-14-19.9-2.8-6.8-2.6-12.2.4-15.2l4.3-4.2c1.1-1.1 2.5-1.5 4-1.4 1.4.2 2.5 1 3.2 2.2l6.5 11.5c1 1.8.7 4-.7 5.4l-4.1 4c-.8.9-.9 2.2-.2 3.1 2.1 2.8 4.5 5.5 7.1 8.1 2.6 2.6 5.3 4.9 8.1 7 1 .7 2.3.6 3.1-.2l4.1-4.1c1.4-1.4 3.7-1.7 5.5-.7l11.5 6.4c1.3.7 2.1 1.9 2.3 3.3.2 1.4-.3 2.8-1.4 3.9zm-.8-3.6c-.1-.8-.5-1.4-1.1-1.7l-11.6-6.4c-.9-.6-2.1-.4-2.9.3l-1.9 2 1.9 1c.5.3.7.9.4 1.4-.2.4-.5.6-.9.6q-.3 0-.5-.1l-2.5-1.4-.5.6c-1.6 1.5-4.2 1.7-6 .4-2.9-2.1-5.7-4.5-8.4-7.2s-5.1-5.5-7.3-8.3c-1.3-1.8-1.1-4.3.5-5.9l.5-.5-5.4-9.8c-.3-.5-.1-1.2.5-1.4.5-.3 1.2-.1 1.4.4l5.1 9.2 2-1.9c.7-.8.9-1.9.3-2.8L14 12.8c-.3-.6-.9-1-1.6-1.1H12c-.6 0-1.3.2-1.8.7l-.7.7 1.3 2.5c.3.5.1 1.2-.4 1.4q-.3.2-.5.2c-.4 0-.8-.2-1-.6l-1-1.9-2 2C3.6 19 3.6 23.6 6 29.5c2.5 6.2 7.3 13 13.5 19.1 6.3 6.2 13.2 11 19.4 13.5 5.9 2.3 10.6 2.3 13 0l1.9-1.9-9.3-5c-.5-.3-.7-1-.4-1.5.3-.5.9-.7 1.4-.4l9.9 5.3.8-.7c.5-.6.8-1.4.7-2.1zm-1.8-25.2c0 .6-.5 1-1.1 1h-1.2v3.5c0 .6-.5 1.1-1.1 1.1-.6 0-1.1-.5-1.1-1.1v-3.5h-7c-.3 0-.6-.1-.8-.4-.2-.2-.3-.6-.3-.9L44.9 20c.1-.6.7-.9 1.3-.8.5.1.9.7.8 1.3l-2 9h5.6v-9.2c0-.6.5-1.1 1.1-1.1.6 0 1.1.5 1.1 1.1v9.2H54c.6 0 1.1.5 1.1 1.1zm-13.9 4.5c0 .6-.5 1.1-1.1 1.1h-9.2c-.6 0-1.1-.5-1.1-1.1 0-3.2 2.7-4.7 5-6 2.7-1.4 4.3-2.4 4.3-4.6 0-1.7-1.6-3.2-3.6-3.2-1.9 0-3.5 1.5-3.5 3.2 0 .6-.5 1.1-1.1 1.1-.6 0-1.1-.5-1.1-1.1 0-2.9 2.6-5.3 5.7-5.3 3.2 0 5.7 2.4 5.7 5.3 0 3.6-2.9 5.2-5.3 6.5-1.9 1.1-3.3 1.8-3.8 3.1h8c.6 0 1.1.5 1.1 1zm23.1 12.4c.2.6-.2 1.2-.8 1.3l-5.8 1.1q-.1.1-.2.1c-.3 0-.6-.1-.8-.4-.2-.2-.3-.6-.3-.9l1.2-5.7c.1-.6.7-1 1.3-.9.6.1.9.7.8 1.3l-.5 2.4c4.9-4.6 7.6-10.9 7.6-17.5C66.8 15 55.9 4.1 42.5 4.1c-8 0-15.4 3.9-20 10.3-.3.5-1 .6-1.5.3-.5-.4-.6-1.1-.3-1.5C25.7 6.2 33.8 2 42.5 2 57.1 2 69 13.8 69 28.3c0 7.1-2.9 13.9-8 18.8l2.1-.4c.6-.1 1.1.3 1.2.8zM43.5 7.7v2.2c0 .6-.5 1.1-1 1.1-.6 0-1.1-.5-1.1-1.1V7.7c0-.6.5-1.1 1.1-1.1.5 0 1 .5 1 1.1zm20.9 20.6c0 .6-.5 1-1.1 1H61c-.6 0-1.1-.4-1.1-1s.5-1.1 1.1-1.1h2.3c.6 0 1.1.5 1.1 1.1zm-37-8.7c-.2.4-.6.6-1 .6q-.3 0-.5-.2l-2-1.1c-.6-.3-.7-1-.4-1.5.3-.5.9-.7 1.4-.4l2.1 1.2c.5.3.7.9.4 1.4zm34 19.5c-.2.4-.5.6-.9.6q-.3 0-.5-.2l-2.1-1.1c-.5-.3-.7-1-.4-1.5.3-.5 1-.7 1.5-.4l2 1.2c.6.2.7.9.4 1.4zM53.8 11l-1.2 1.9c-.2.4-.5.6-.9.6q-.3 0-.5-.2c-.6-.3-.7-.9-.4-1.4l1.1-2c.3-.5 1-.7 1.5-.4.5.3.7.9.4 1.5zM34.1 44.7l-1.1 2c-.2.3-.6.5-1 .5q-.2 0-.5-.1c-.5-.3-.7-1-.4-1.5l1.2-2c.3-.5.9-.7 1.4-.4.6.3.7 1 .4 1.5zM61 18.9L59 20q-.2.2-.5.2c-.4 0-.7-.2-1-.6-.3-.5-.1-1.1.4-1.4L60 17c.5-.3 1.1-.1 1.4.4.3.5.2 1.2-.4 1.5zM27 38.4l-2.1 1.1q-.2.2-.5.2c-.4 0-.7-.2-.9-.6-.3-.5-.2-1.2.4-1.4l2-1.2c.5-.3 1.2-.1 1.5.4.3.5.1 1.2-.4 1.5zm6.7-25.1q-.2.2-.5.2c-.4 0-.7-.2-.9-.6L31.1 11c-.3-.6-.1-1.2.4-1.5.5-.3 1.2-.1 1.5.4l1.1 2c.3.5.2 1.1-.4 1.4zm19.7 33.8q-.3.1-.5.1c-.4 0-.8-.2-1-.5l-1.1-2c-.3-.5-.2-1.2.4-1.5.5-.3 1.2-.1 1.4.4l1.2 2c.3.5.1 1.2-.4 1.5z" fill="#243f4d"/></svg>