<svg version="1.2" xmlns="http://www.w3.org/2000/svg" width="64" height="67"><path d="M45.5 31.6c9.3 0 16.9 7.6 16.9 16.9 0 9.3-7.6 16.9-16.9 16.9-9.3 0-16.9-7.6-16.9-16.9 0-9.3 7.6-16.9 16.9-16.9z" fill="#a3bbc8"/><path fill-rule="evenodd" d="M34.6 11.4c-.3.5-.9.7-1.4.4-6.1-3.2-13.6-1.9-18.5 3-5.7 5.8-6.3 15-1.4 21.4.4.4.3 1.1-.1 1.4q-.3.2-.6.2c-.3 0-.6-.1-.8-.4-5.6-7.2-5-17.5 1.5-24 5.5-5.6 13.9-6.9 20.8-3.4.5.3.7.9.5 1.4zm4.2 27.7c-3.5 3.6-8.2 5.4-12.8 5.4-3.9 0-7.8-1.3-11-3.8-.5-.4-.6-1-.2-1.5.3-.4.9-.5 1.4-.1 6.3 5 15.4 4.4 21.2-1.4 4.9-4.9 6.1-12.5 2.9-18.7-.2-.5 0-1.1.5-1.4.5-.2 1.1 0 1.3.5 3.5 7 2.2 15.5-3.3 21zm.7-23.5q-.3.3-.7.3c-.3 0-.6-.1-.8-.3l-.6-.8q-.4-.3-.8-.7c-.4-.3-.4-1-.1-1.4.4-.4 1-.5 1.4-.1q.5.4.9.8t.7.8c.4.4.4 1.1 0 1.4zm8.8 14.7c-.2.2-.3.6-.2.9l.4 2.5c.2 1.3-.4 2.6-1.4 3.3l-2 1.5c-.3.2-.5.5-.6.8l-.6 2.5c-.3 1.3-1.2 2.2-2.5 2.5l-.9.3 6.9 15.6c.1.3.1.7-.1 1-.2.3-.6.4-.9.4l-5.6-.7-3.2 4.7c-.2.2-.5.4-.8.4h-.1c-.4 0-.7-.3-.9-.6l-7-15.9-1 .5c-.5.4-1.1.5-1.7.5-.7 0-1.3-.1-1.8-.5l-.9-.5-7.1 15.9c-.1.3-.4.6-.8.6h-.1c-.3 0-.6-.2-.8-.4l-3.2-4.7-5.6.7c-.3 0-.7-.1-.9-.4-.2-.3-.3-.7-.1-1l6.9-15.6-1-.3c-1.3-.3-2.2-1.2-2.5-2.5l-.6-2.5c-.1-.3-.3-.6-.6-.8L5 37c-1-.7-1.5-2-1.3-3.3l.3-2.5q.1-.5-.1-.9l-1.4-2.2c-.6-1.1-.6-2.5 0-3.6l1.4-2.2c.1-.3.2-.6.1-.9l-.3-2.5c-.2-1.3.3-2.6 1.3-3.4l2-1.4c.3-.2.5-.5.6-.9l.6-2.4c.3-1.3 1.2-2.3 2.5-2.6l2.4-.6q.5-.1.8-.5L15.4 5c.8-1 2-1.5 3.3-1.3l2.5.4q.5 0 .9-.2l2.2-1.4c1.1-.6 2.4-.6 3.5 0L30 3.9c.3.1.6.2.9.2l2.5-.4c1.3-.2 2.5.3 3.3 1.3l1.5 2.1c.2.3.5.5.8.5l2.4.6c1.3.3 2.2 1.3 2.5 2.6l.6 2.4q.2.5.6.9l2 1.4c1 .8 1.6 2.1 1.4 3.4l-.4 2.5c-.1.3 0 .6.2.9l1.3 2.2c.6 1.1.6 2.5 0 3.6zM21.6 48.5h-.4l-2.5.4q-.5.1-1 0l-3.3 7.5c-.2.4-.5.6-.9.6q-.2 0-.4-.1c-.5-.2-.7-.8-.5-1.3l3.3-7.5q-.3-.2-.5-.5L14 45.5q-.2-.2-.4-.3L7.3 59.4l4.5-.5c.3-.1.7.1.9.4l2.5 3.7zm16.9-3.4l-.3.3-1.5 2.1q-.2.3-.4.5l3.3 7.5c.2.5 0 1.1-.5 1.3q-.2.1-.4.1c-.4 0-.8-.2-.9-.6l-3.3-7.4q-.5.1-1.1 0l-2.5-.4q-.2-.1-.4 0l6.4 14.4 2.6-3.7c.2-.3.6-.4.9-.4l4.4.5zm9.4-19.6l-1.3-2.1c-.4-.7-.6-1.6-.5-2.4l.4-2.5c.1-.5-.1-1-.5-1.3l-2.1-1.5c-.6-.5-1.1-1.2-1.3-2l-.6-2.5c-.1-.5-.5-.9-1-1l-2.5-.6c-.7-.2-1.4-.7-1.9-1.3l-1.5-2.1c-.3-.4-.8-.6-1.3-.6l-2.5.4c-.8.2-1.6 0-2.3-.4l-2.2-1.3c-.4-.3-1-.3-1.4 0l-2.2 1.3c-.7.4-1.5.6-2.3.4l-2.5-.4c-.5 0-1 .2-1.3.6l-1.5 2.1c-.5.6-1.2 1.1-2 1.3l-2.4.6c-.5.1-.9.5-1.1 1l-.6 2.5c-.1.8-.6 1.5-1.3 2l-2 1.5c-.4.3-.6.8-.6 1.3L6 21c.2.8 0 1.7-.4 2.4l-1.3 2.1c-.3.5-.3 1.1 0 1.5l1.3 2.2c.4.7.6 1.5.4 2.3L5.6 34c0 .6.2 1.1.6 1.4l2 1.5c.7.5 1.2 1.2 1.3 2l.6 2.4c.2.5.6.9 1.1 1.1l2.4.6c.8.2 1.5.6 2 1.3l1.5 2c.3.5.8.7 1.3.6l2.5-.4h.5c.6 0 1.3.1 1.8.5l2.2 1.3c.4.3 1 .3 1.4 0L29 47c.7-.4 1.5-.6 2.3-.5l2.5.4c.5.1 1-.1 1.3-.6l1.5-2c.5-.7 1.2-1.1 1.9-1.3l2.5-.6c.5-.2.9-.6 1-1.1l.6-2.4c.2-.8.7-1.5 1.3-2l2.1-1.5c.4-.3.6-.8.5-1.4l-.4-2.5c-.1-.8.1-1.6.5-2.3l1.3-2.2c.3-.4.3-1 0-1.5zM37.3 25l-4.5 4.2 1.2 6c.2.7-.1 1.4-.7 1.8-.6.4-1.3.5-1.9.1l-5.3-3-5.3 3q-.4.3-.9.3t-1-.4c-.6-.4-.9-1.1-.7-1.8l1.1-6-4.4-4.2c-.5-.4-.7-1.2-.5-1.9.2-.6.8-1.1 1.5-1.2l6-.7 2.5-5.6c.3-.6 1-1 1.7-1s1.3.4 1.6 1l2.6 5.6 6 .7c.7.1 1.2.6 1.5 1.2.2.7 0 1.5-.5 1.9zm-1.7-1.1l-6.1-.8c-.4 0-.7-.2-.8-.6l-2.6-5.6-2.6 5.6c-.2.4-.5.6-.8.6l-6.1.8 4.5 4.2c.3.2.4.6.3.9l-1.2 6.2 5.4-3.1q.2-.1.5-.1.2 0 .5.1l5.4 3.1-1.2-6.2c-.1-.3 0-.7.3-.9z" fill="#243f4d"/></svg>