<svg version="1.2" xmlns="http://www.w3.org/2000/svg" width="77" height="63"><path d="M58.5 27.6c9.3 0 16.9 7.6 16.9 16.9 0 9.3-7.6 16.9-16.9 16.9-9.3 0-16.9-7.6-16.9-16.9 0-9.3 7.6-16.9 16.9-16.9z" fill="#a3bbc8"/><path fill-rule="evenodd" d="M66 5.4v41.1c0 1.9-1.5 3.4-3.4 3.4H40.9l.9 7h3.7c.5 0 1 .4 1 1s-.5 1.1-1 1.1h-23c-.5 0-1-.5-1-1.1 0-.6.5-1 1-1h3.7l.9-7H5.4c-1.9 0-3.4-1.5-3.4-3.4V5.4C2 3.5 3.5 2 5.4 2h57.2C64.5 2 66 3.5 66 5.4zM39.7 56.9l-.9-7h-9.6l-.9 7zm24.2-10.4V5.4c0-.7-.5-1.3-1.2-1.3H5.5c-.7 0-1.3.6-1.3 1.3v41.1c0 .7.6 1.2 1.3 1.2h57.2c.7 0 1.2-.5 1.2-1.2zM53.5 7.6c0 .6-.5 1.1-1.1 1.1H8.8V42h2.4c.6 0 1.1.5 1.1 1.1 0 .6-.5 1-1.1 1H7.7c-.6 0-1-.4-1-1V7.6c0-.5.5-1 1-1h44.7c.6 0 1.1.5 1.1 1zm8 0v35.5c0 .6-.5 1-1.1 1H15.8c-.6 0-1.1-.4-1.1-1s.5-1.1 1.1-1.1h43.6V8.7H57c-.6 0-1.1-.5-1.1-1.1 0-.5.5-1 1.1-1h3.4c.6 0 1.1.5 1.1 1zm-4.6 8c0 1.9-1.5 3.4-3.3 3.4q-.8 0-1.4-.3l-8.7 9.1q.4.7.4 1.6c0 1.8-1.5 3.3-3.3 3.3-1.9 0-3.4-1.5-3.4-3.3q0-.3.1-.6l-7.4-3.9c-.6.6-1.4 1-2.3 1q-.8-.1-1.5-.4l-8.4 8.1q.3.7.3 1.5c0 1.8-1.5 3.3-3.4 3.3-1.8 0-3.3-1.5-3.3-3.3 0-1.9 1.5-3.4 3.3-3.4q.9 0 1.6.4l8.4-8.2q-.4-.6-.4-1.4c0-1.9 1.5-3.4 3.4-3.4s3.4 1.5 3.4 3.4q0 .3-.1.5l7.4 3.9c.6-.5 1.4-.9 2.3-.9q.7 0 1.4.3l8.6-9.1q-.4-.7-.4-1.6c0-1.8 1.5-3.3 3.4-3.3 1.8 0 3.3 1.5 3.3 3.3zM15.8 35.1c0-.7-.5-1.2-1.2-1.2s-1.2.5-1.2 1.2c0 .6.5 1.2 1.2 1.2s1.2-.6 1.2-1.2zm13-12.6c0-.7-.5-1.2-1.2-1.2s-1.2.5-1.2 1.2.5 1.2 1.2 1.2 1.2-.5 1.2-1.2zm13 6.9c0-.7-.6-1.3-1.2-1.3-.7 0-1.2.6-1.2 1.3 0 .6.5 1.2 1.2 1.2.6 0 1.2-.6 1.2-1.2zm13-13.8c0-.6-.6-1.2-1.2-1.2-.7 0-1.3.6-1.3 1.2 0 .7.6 1.3 1.3 1.3.6 0 1.2-.6 1.2-1.3zm-.2 6.9v16c0 .6-.4 1.1-1 1.1s-1.1-.5-1.1-1.1v-16c0-.6.5-1.1 1.1-1.1.6 0 1 .5 1 1.1zm-25.9 6.9v9.1c0 .6-.5 1.1-1.1 1.1-.6 0-1.1-.5-1.1-1.1v-9.1c0-.6.5-1.1 1.1-1.1.6 0 1.1.5 1.1 1.1zm13 6.8v2.3c0 .6-.5 1.1-1.1 1.1-.6 0-1.1-.5-1.1-1.1v-2.3c0-.6.5-1.1 1.1-1.1.6 0 1.1.5 1.1 1.1z" fill="#243f4d"/></svg>