<svg version="1.2" xmlns="http://www.w3.org/2000/svg" width="76" height="55"><path d="M57.5 19.6c9.3 0 16.9 7.6 16.9 16.9 0 9.3-7.6 16.9-16.9 16.9-9.3 0-16.9-7.6-16.9-16.9 0-9.3 7.6-16.9 16.9-16.9z" fill="#a3bbc8"/><path fill-rule="evenodd" d="M66 24.1v10.6c0 .5-.4 1-1 1h-3.3c0 3.5-2.8 6.3-6.3 6.3S49 39.2 49 35.7H26.4h.1c0 3.5-2.9 6.3-6.4 6.3-3.5 0-6.3-2.8-6.3-6.3H8.3c-1.1 0-2-1-2-2.1v-2.2H3c-.6 0-1-.4-1-1 0-.5.4-.9 1-.9h9.6c.6 0 1 .4 1 .9 0 .6-.4 1-1 1H8.3v2.3h5.8c.9-2.5 3.2-4.2 6-4.2s5.1 1.7 6 4.2h20.8v-7.5c0-.5.4-1 1-1 .5 0 1 .5 1 1v7.5h.5c.8-2.5 3.2-4.2 6-4.2s5.1 1.7 6 4.2H64v-4.4h-1.1c-1.8 0-3.2-1.4-3.2-3.1v-2.1c0-.5.5-1 1-1h3.1c-.4-1.3-1.6-2.2-3.1-2.2H48.9V22c0 .5-.5 1-1 1-.6 0-1-.5-1-1V4H8.3v18c0 .5-.5 1-1 1-.6 0-1-.5-1-1V4c0-1.1.9-2 2-2h38.5c1.2 0 2.1.9 2.1 2v2.2h7.5c2.4 0 4.3 1.9 4.3 4.2v1c0 .5-.4.9-.8 1l1.6 6.6c2.6.3 4.5 2.5 4.5 5.1zM48.9 10.4h9.8c0-1.2-1-2.2-2.3-2.2h-7.5zm0 8.5h10.5l-1.6-6.5h-8.9zM24.4 35.7c0-2.3-1.9-4.3-4.3-4.3s-4.3 2-4.3 4.3c0 2.4 1.9 4.3 4.3 4.3s4.3-1.9 4.3-4.3zm35.3 0c0-2.3-1.9-4.3-4.3-4.3s-4.4 2-4.4 4.3c0 2.4 2 4.3 4.4 4.3 2.4 0 4.3-1.9 4.3-4.3zm4.3-8.4v-2.2h-2.3v1.1c0 .6.5 1.1 1.2 1.1zm-41.9 8.4c0 1.1-.9 2.1-2 2.1-1.2 0-2.1-1-2.1-2.1s.9-2 2.1-2c1.1 0 2 .9 2 2zm35.3 0c0 1.1-.9 2.1-2.1 2.1-1.1 0-2-1-2-2.1s.9-2 2-2c1.2 0 2.1.9 2.1 2zm-12.8-5.3c0 .6-.5 1-1 1h-15c-.5 0-1-.4-1-1 0-.5.5-1 1-1h15c.5 0 1 .5 1 1zm-25.7-4.2c0 .6-.4 1-1 1H5.1c-.5 0-1-.4-1-1 0-.5.5-1 1-1h12.8c.6 0 1 .5 1 1zm17.9-13l-9.6 9.5q-.3.3-.7.3-.4 0-.7-.3l-5.4-5.3c-.4-.4-.4-1 0-1.4.4-.4 1.1-.4 1.4 0l4.7 4.6 8.9-8.8c.4-.4 1-.4 1.4 0 .4.4.4 1 0 1.4z" fill="#243f4d"/></svg>