<svg version="1.2" xmlns="http://www.w3.org/2000/svg" width="21" height="17"><path fill-rule="evenodd" d="M5 16h-.2c-.1-.1-.2-.2-.2-.4v-2.1H3.3c-.7 0-1.3-.5-1.3-1.2V2.4c0-.7.6-1.2 1.3-1.2h15.4c.7 0 1.3.5 1.3 1.2v9.9c0 .7-.6 1.2-1.3 1.2H7.8l-2.5 2.4q-.1.1-.3.1zM3.3 2c-.3 0-.4.2-.4.4v9.9c0 .2.1.4.4.4H5c.2 0 .4.2.4.4v1.5l1.9-1.8q.1-.1.3-.1h11.1c.3 0 .4-.2.4-.4V2.4c0-.2-.1-.4-.4-.4zm4.8 5.4c0 .3-.3.6-.7.6-.3 0-.6-.3-.6-.6 0-.4.3-.7.6-.7.4 0 .7.3.7.7zm3.6 0c0 .3-.3.6-.7.6-.3 0-.6-.3-.6-.6 0-.4.3-.7.6-.7.4 0 .7.3.7.7zm3.3 0c0 .3-.3.6-.6.6-.4 0-.7-.3-.7-.6 0-.4.3-.7.7-.7.3 0 .6.3.6.7z" opacity=".8" fill="#222933"/></svg>