<svg version="1.2" xmlns="http://www.w3.org/2000/svg" width="44" height="44"><path d="M22.5 42.6C11.2 42.6 2 33.4 2 22.1 2 10.7 11.2 1.6 22.5 1.6S43 10.7 43 22.1c0 11.3-9.2 20.5-20.5 20.5z" fill="#f6f6f6"/><path d="M17.8 28.9q-2.2-.1-3.9-1.4-2.2-1.6-2.7-4.2-.3-1-.2-2 .2-2.3 1.6-4.1 1.6-1.8 3.9-2.4.6-.2 1.2-.2h.7q1.8 0 3.4.9c.7.4 1.1.8 1.2.9q-1 1.1-2.1 2.1c-.5-.4-1.1-.9-2.1-1q-.3-.1-.6-.1c-2 0-3.7 1.5-4.1 3.4q-.2.6-.1 1.3c.1 1.8 1.3 3.2 2.9 3.7q.6.2 1.3.2h.3c.7 0 1.4-.2 2.1-.7 1.1-.7 1.4-1.8 1.4-2.1h-3.8v-2.9h6.7c.4 2.1.1 4.3-1.2 6.1-.9 1.1-2.2 1.9-3.6 2.3q-1 .2-1.9.2h-.4zm13.3-4h-1.9v-2.5h-2.5v-2h2.5v-2.5h2v2.5h2.5v2h-2.5v2.5z" fill="#888"/></svg>