<svg version="1.2" xmlns="http://www.w3.org/2000/svg" width="24" height="23"><path d="M4.1 5.9C3 5.9 2 4.9 2 3.7c0-1.2 1-2.1 2.1-2.1 1.2 0 2.2.9 2.2 2.1 0 1.2-1 2.2-2.2 2.2zm0 7.8C3 13.7 2 12.8 2 11.6c0-1.2 1-2.1 2.1-2.1 1.2 0 2.2.9 2.2 2.1 0 1.2-1 2.1-2.2 2.1zm0 7.9C3 21.6 2 20.7 2 19.5c0-1.2 1-2.2 2.1-2.2 1.2 0 2.2 1 2.2 2.2 0 1.2-1 2.1-2.2 2.1zM12 5.9c-1.2 0-2.1-1-2.1-2.2 0-1.2.9-2.1 2.1-2.1 1.2 0 2.2.9 2.2 2.1 0 1.2-1 2.2-2.2 2.2zm0 7.8c-1.2 0-2.1-.9-2.1-2.1 0-1.2.9-2.1 2.1-2.1 1.2 0 2.2.9 2.2 2.1 0 1.2-1 2.1-2.2 2.1zm0 7.9c-1.2 0-2.1-.9-2.1-2.1 0-1.2.9-2.2 2.1-2.2 1.2 0 2.2 1 2.2 2.2 0 1.2-1 2.1-2.2 2.1zm7.9-15.7c-1.2 0-2.2-1-2.2-2.2 0-1.2 1-2.1 2.2-2.1 1.2 0 2.1.9 2.1 2.1 0 1.2-.9 2.2-2.1 2.2zm0 7.8c-1.2 0-2.2-.9-2.2-2.1 0-1.2 1-2.1 2.2-2.1 1.2 0 2.1.9 2.1 2.1 0 1.2-.9 2.1-2.1 2.1zm0 7.9c-1.2 0-2.2-.9-2.2-2.1 0-1.2 1-2.2 2.2-2.2 1.2 0 2.1 1 2.1 2.2 0 1.2-.9 2.1-2.1 2.1z" fill="#fff"/></svg>