<svg version="1.2" xmlns="http://www.w3.org/2000/svg" width="20" height="18"><path fill-rule="evenodd" d="M6.5 18c-.5 0-1-.2-1.4-.6-.6-.6-.8-1.5-.5-2.3.3-.8 1.1-1.3 1.9-1.3.6 0 1.1.2 1.5.6.4.4.6.9.6 1.5 0 .8-.5 1.6-1.3 1.9q-.4.2-.8.2zm0-3c-.3 0-.7.2-.8.6-.1.3-.1.7.2.9.3.3.6.4 1 .2.3-.1.5-.4.5-.8q0-.4-.2-.6-.3-.3-.7-.3zm8.4 3c-.5 0-1-.2-1.4-.6-.6-.6-.8-1.5-.5-2.3.3-.8 1.1-1.3 1.9-1.3.6 0 1.1.2 1.5.6.4.4.6.9.6 1.5 0 .8-.5 1.6-1.3 1.9q-.4.2-.8.2zm0-3c-.3 0-.7.2-.8.6-.1.3-.1.7.2.9.2.3.6.4 1 .2.3-.1.5-.4.5-.8q0-.4-.3-.6c-.1-.2-.3-.3-.6-.3zm-11.3.2q-.1 0-.2-.1c-.3-.1-.4-.5-.3-.8.6-1.2 1.6-1.9 3.1-2.1L5.1 6.8c-.1-.3.2-.6.5-.7.3-.1.6.1.7.5l1.1 5.5h9.4l1.8-6.7H5.3c-2.1 0-4-1.6-4.3-3.7 0-.3.2-.6.5-.7.3 0 .6.2.7.5.2 1.5 1.5 2.7 3.1 2.7h14.1q.3 0 .4.2.2.3.1.5l-2.1 8c-.1.2-.3.4-.6.4H6.9q-2 0-2.7 1.5c-.1.3-.3.4-.6.4z" fill="#243f4d"/></svg>