<svg version="1.2" xmlns="http://www.w3.org/2000/svg" width="17" height="17"><path fill-rule="evenodd" d="M3.7 7.1c.4-.1.7.1.7.5q.2.8.8 1.4c.4.4 1 .7 1.5.8.3.1.6.4.5.8-.1.3-.4.5-.7.5-.8-.2-1.6-.6-2.1-1.1-.6-.6-1-1.4-1.2-2.2-.1-.3.1-.7.5-.7zM7 1c3.4 0 6.3 2.8 6.3 6.3q-.1 1.4-.6 2.6l2.3 2c1.7 1.7.8 3.3.3 3.7-.4.5-2 1.4-3.7-.3L9.5 13q-1.1.5-2.5.5C3.5 13.5.7 10.7.7 7.2.7 3.8 3.5 1 7 1zm5.5 13.5c.3.3 1.2.9 1.9.2.2-.1.6-1-.2-1.8L12 11q-.6.8-1.3 1.3zm-5.6-2.3c2.8 0 5-2.2 5-4.9 0-2.8-2.2-5-5-5-2.7 0-5 2.2-5 5 0 2.7 2.3 4.9 5 4.9z" fill="#243f4d"/></svg>