<svg version="1.2" xmlns="http://www.w3.org/2000/svg" width="44" height="44"><path d="M22.5 42.6C11.2 42.6 2 33.4 2 22.1 2 10.7 11.2 1.6 22.5 1.6S43 10.7 43 22.1c0 11.3-9.2 20.5-20.5 20.5z" fill="#f6f6f6"/><path fill-rule="evenodd" d="M17.6 30.5c-2-.5-3.1-1.8-3.4-3.8-.3-1.4-.3-8.1.1-9.6.6-1.9 1.8-3 3.8-3.3.8-.2 2.6-.2 4.3-.2 1.6 0 3.2 0 4.2.1 1.2 0 2.2.4 3.1 1.2.9.8 1.3 1.8 1.4 3 .1 1.3.2 7.7-.2 9.2q-.8 3-3.8 3.5c-.7.1-2.7.2-4.7.2-2.1 0-4.1-.1-4.8-.3zm.9-15.3c-1.5.2-2.5 1.1-2.7 2.6-.3 1.6-.3 7.5-.1 8.7.2 1.3.9 2.1 2.1 2.4.7.2 2.7.3 4.6.3 1.9 0 3.6-.1 4.3-.1 1.5-.2 2.5-1.1 2.7-2.6.3-1.5.3-7.1.1-8.5-.1-1.5-1-2.5-2.5-2.7-.8-.1-2.6-.2-4.3-.2-1.7 0-3.4.1-4.2.1zm-.3 7c0-2.5 2-4.5 4.4-4.4 2.5 0 4.4 1.9 4.4 4.4 0 2.4-2 4.4-4.4 4.4-2.5 0-4.4-2-4.4-4.4zm1.5-.1c0 1.6 1.3 2.9 2.8 2.9h.1c1.5 0 2.8-1.2 2.8-2.8.1-1.6-1.2-2.9-2.8-2.9-1.5 0-2.8 1.3-2.9 2.8zm6.5-4.5c0-.6.5-1 1-1 .6 0 1.1.4 1.1 1-.1.6-.5 1-1.1 1-.6 0-1-.5-1-1z" fill="#888"/></svg>