<svg version="1.2" xmlns="http://www.w3.org/2000/svg" width="26" height="21"><path fill-rule="evenodd" d="M22.7 12.2c-.8 1.3-3.1 3.3-4.7 4.7-1.7 1.4-4 3.1-5 3.1s-3.3-1.7-5-3.1c-1.6-1.4-3.9-3.4-4.7-4.7-1-1.5-1.4-2.8-1.3-4.4.1-1.5.7-3 1.9-4.1C5 2.6 6.5 2 8 2c2.5 0 4.1 1.9 4.9 2.8l.1.1.2-.2C14.1 3.8 15.7 2 18 2c1.5 0 3 .6 4.1 1.7 1.2 1.1 1.8 2.6 1.9 4.1.1 2-.6 3.4-1.3 4.4zm-1.1-.8c-.6 1-2.4 2.8-4.4 4.4-2.4 2.1-3.8 2.8-4.2 2.9-.3-.1-1.8-.9-4.2-2.9-2-1.7-3.8-3.4-4.4-4.4-.8-1.2-1.1-2.3-1.1-3.5.2-2.5 2.3-4.6 4.7-4.6 1.9 0 3.2 1.6 3.9 2.4.5.5.7.7 1.1.7.4 0 .7-.2 1.2-.8.7-.8 2.1-2.3 3.8-2.3 2.4 0 4.5 2.1 4.7 4.6 0 1.2-.3 2.3-1.1 3.5z" fill="#a3bbc8"/></svg>