<svg version="1.2" xmlns="http://www.w3.org/2000/svg" width="55" height="37"><path fill-rule="evenodd" d="M10.6 6.1c0 .5-.3.8-.8.8H3.7c-.4 0-.8-.3-.8-.8 0-.4.4-.8.8-.8h6.1c.5 0 .8.4.8.8zm.5 11c0 .5-.3.8-.8.8H4.7c-.4 0-.7-.3-.7-.8 0-.4.3-.8.7-.8h5.6c.5 0 .8.4.8.8zM9 12.4c0 .4-.3.8-.8.8H1.6c-.4 0-.8-.4-.8-.8s.4-.8.8-.8h6.6c.5 0 .8.4.8.8zm0 11c0 .4-.3.8-.8.8h-.6c-.4 0-.8-.4-.8-.8s.4-.8.8-.8h.6c.5 0 .8.4.8.8zm-3.2 0c0 .4-.4.8-.8.8H1.6c-.4 0-.8-.4-.8-.8s.4-.8.8-.8H5c.4 0 .8.4.8.8zm44.1-12.5v8c2.8 1.7 4.7 4.8 4.7 8.3 0 5.4-4.4 9.8-9.9 9.8-5.4 0-9.8-4.4-9.8-9.8q0-.8.1-1.5h-9.7c-.4 2.4-2.5 4.2-4.9 4.2-2.5 0-4.6-1.8-4.9-4.2H13c-.4 0-.7-.3-.7-.8V1.4c0-.5.3-.8.7-.8h6.1c.4 0 .8.3.8.8 0 .4-.4.7-.8.7h-5.3v22.1h1.7c.3-2.4 2.4-4.2 4.9-4.2 2.4 0 4.5 1.8 4.9 4.2h8.3V23c0-.4.4-.8.8-.8s.8.4.8.8v1.2h.2c1.3-4 5-6.8 9.3-6.8h.6c.1-.2.4-.4.7-.4.4 0 .7.3.8.6q.8.2 1.6.5v-7.2c0-3.6-3-6.6-6.6-6.6h-6.6v15.1c0 .4-.4.7-.8.7s-.8-.3-.8-.7V2.1H22.2c-.4 0-.8-.3-.8-.7 0-.5.4-.8.8-.8h12.2c.4 0 .8.3.8.8v1.4h6.6c4.5 0 8.1 3.6 8.1 8.1zm-26.1 14c0-1.8-1.6-3.4-3.4-3.4-1.9 0-3.4 1.6-3.4 3.4 0 1.9 1.5 3.4 3.4 3.4 1.8 0 3.4-1.5 3.4-3.4zm23-14v3.2c0 .4-.4.8-.8.8h-8.5c-.4 0-.7-.4-.7-.8V6.7c0-.4.3-.8.7-.8h4.3c2.8 0 5 2.2 5 5zm-1.6 0c0-1.9-1.5-3.4-3.4-3.4h-3.5v5.8h6.9zM22.4 25c0 1.1-.9 2-2 2s-2.1-.9-2.1-2 1-2 2.1-2 2 .9 2 2zm-1.6 0c0-.3-.2-.5-.4-.5-.3 0-.5.2-.5.5 0 .2.2.4.5.4.2 0 .4-.2.4-.4z" fill="#a3bbc7"/></svg>