<svg version="1.2" xmlns="http://www.w3.org/2000/svg" width="52" height="54"><path d="M42 33.6c5.4 0 9.8 4.4 9.8 9.8s-4.4 9.8-9.8 9.8-9.8-4.4-9.8-9.8 4.4-9.8 9.8-9.8zm8-9c0 13.6-11 24.6-24.5 24.6-5.4 0-10.5-1.7-14.8-4.9-.4-.3-.5-.9-.2-1.3.4-.4.9-.5 1.4-.2 3.9 3 8.6 4.5 13.6 4.5 12.5 0 22.6-10.1 22.6-22.7 0-4.2-1.1-8.3-3.4-11.9-.3-.5-.1-1.1.3-1.3.5-.3 1-.2 1.3.3C48.7 15.6 50 20 50 24.6zm-25.8 9.9c0 .6-.4 1-.9 1h-9.8c-.4 0-.8-.2-.9-.6-.1-.3-.1-.7.2-1l6.3-6.4c2.1-2 3.2-4.8 3.2-7.7 0-2.2-1.7-3.9-3.9-3.9s-4 1.7-4 3.9c0 .5-.4 1-.9 1s-1-.5-1-1c0-3.2 2.7-5.8 5.9-5.8s5.8 2.6 5.8 5.8c0 3.4-1.3 6.7-3.7 9.1l-4.8 4.7h7.6c.5 0 .9.4.9.9zm15.1-6.4c0 .5-.5.9-1 .9h-2.6v5.5c0 .6-.4 1-.9 1s-1-.4-1-1V29h-6.9c-.3 0-.6-.1-.8-.4-.2-.3-.2-.7 0-1L34 14.4c.2-.4.8-.6 1.3-.3.3.2.4.5.4.8v7.6c0 .5-.4 1-.9 1s-1-.5-1-1v-4.2l-5.2 8.9h5.2v-1.5c0-.6.5-1 1-1s.9.4.9 1v1.5h2.6c.5 0 1 .4 1 .9zm4.4-19.5c.1.5-.4.9-.9 1l-4 .1h-.1c-.5 0-.9-.5-.9-1s.4-.9.9-.9l1.9-.1C36.4 4 31 2 25.5 2 13 2 2.8 12.1 2.8 24.7c0 6.1 2.4 11.8 6.8 16.1.4.4.4 1 0 1.4q-.3.2-.7.2-.3 0-.6-.2C3.5 37.5.9 31.3.9 24.6.9 11.1 11.9.1 25.5.1c3.4 0 6.8.7 10 2.1q3.5 1.6 6.3 4.1V4.6c0-.5.4-1 .9-1s.9.4 1 .9z" opacity=".3" fill="#a3bbc8"/></svg>